<svg width="0" height="0" class="hidden"><symbol fill="none" xmlns="http://www.w3.org/2000/svg" viewBox="0 0 32 32" id="react-svgrepo-com"><path d="M18.679 15.976c0-1.435-1.2-2.598-2.679-2.598-1.48 0-2.679 1.163-2.679 2.598 0 1.434 1.2 2.597 2.679 2.597 1.48 0 2.679-1.163 2.679-2.597Z" fill="#53C1DE"/><path fill-rule="evenodd" clip-rule="evenodd" d="M24.7 11.154c.566-2.23 1.277-6.363-1.23-7.764-2.495-1.395-5.742 1.278-7.456 2.883-1.71-1.589-5.048-4.25-7.552-2.845-2.494 1.4-1.725 5.465-1.147 7.708-2.327.64-6.315 2.02-6.315 4.84 0 2.811 3.984 4.313 6.297 4.953-.58 2.255-1.311 6.262 1.186 7.659 2.514 1.405 5.842-1.194 7.572-2.816 1.726 1.614 4.942 4.23 7.437 2.83 2.504-1.406 1.852-5.484 1.273-7.74 2.242-.641 6.235-2.11 6.235-4.886 0-2.793-4.01-4.184-6.3-4.822Zm-.284 8.513a28.65 28.65 0 0 0-1.519-3.685 28.625 28.625 0 0 0 1.46-3.631c1.679.472 5.361 1.55 5.361 3.625 0 2.094-3.533 3.183-5.302 3.691Zm-1.566 7.859c-1.862 1.045-4.628-1.456-5.902-2.645a29.352 29.352 0 0 0 2.514-3.096c1.45-.125 2.821-.329 4.064-.607.407 1.595 1.194 5.298-.676 6.348Zm-13.726-.015c-1.863-1.041-1.011-4.616-.584-6.278 1.228.264 2.589.453 4.042.568.83 1.132 1.7 2.173 2.576 3.085-1.083 1.015-4.163 3.671-6.034 2.625ZM2.28 15.976c0-2.102 3.661-3.173 5.378-3.643a29.257 29.257 0 0 0 1.462 3.673 29.689 29.689 0 0 0-1.48 3.726c-1.637-.454-5.36-1.653-5.36-3.756ZM9.104 4.504c1.87-1.05 4.77 1.506 6.012 2.656a29.97 29.97 0 0 0-2.556 3.066c-1.41.127-2.761.33-4.003.604-.466-1.81-1.321-5.278.547-6.326Zm11.275 7.073c.957.117 1.875.273 2.736.464-.259.803-.581 1.643-.96 2.504a41.165 41.165 0 0 0-1.776-2.968Zm-4.365-3.529c.591.621 1.183 1.314 1.766 2.066a38.897 38.897 0 0 0-3.546 0 27.651 27.651 0 0 1 1.78-2.066Zm-6.157 6.496a26.884 26.884 0 0 1-.954-2.517 29.762 29.762 0 0 1 2.72-.452 36.303 36.303 0 0 0-1.766 2.97Zm1.793 5.922a28.076 28.076 0 0 1-2.764-.431c.264-.83.59-1.692.972-2.568a36.306 36.306 0 0 0 1.792 2.999Zm4.4 3.525a28.142 28.142 0 0 1-1.805-2.094c1.188.045 2.378.045 3.566-.006a26.611 26.611 0 0 1-1.761 2.1Zm6.117-6.569c.4.886.739 1.744 1.007 2.559a27.97 27.97 0 0 1-2.798.462c.639-.982 1.239-1.99 1.79-3.02Zm-3.42 3.172a41.486 41.486 0 0 1-5.463.01 34.923 34.923 0 0 1-2.746-4.598 34.908 34.908 0 0 1 2.73-4.59c1.82-.133 3.65-.134 5.469 0a39.137 39.137 0 0 1 2.739 4.572 39.146 39.146 0 0 1-2.729 4.606ZM22.83 4.467c1.87 1.046 1.038 4.76.63 6.376a31.597 31.597 0 0 0-4.012-.615 29.379 29.379 0 0 0-2.536-3.069c1.258-1.175 4.066-3.728 5.918-2.692Z" fill="#53C1DE"/></symbol><symbol fill="none" xmlns="http://www.w3.org/2000/svg" viewBox="0 0 32 32" id="python-svgrepo-com"><path fill-rule="evenodd" clip-rule="evenodd" d="M13.016 2C10.82 2 9.038 3.725 9.038 5.852v2.667h6.886v.74H5.978C3.781 9.26 2 10.984 2 13.111v5.778c0 2.127 1.781 3.852 3.978 3.852h2.295v-3.26c0-2.127 1.781-3.851 3.978-3.851h7.345c1.859 0 3.366-1.46 3.366-3.26V5.852C22.962 3.725 21.18 2 18.984 2h-5.968Zm-.918 4.74c.76 0 1.377-.596 1.377-1.333 0-.736-.616-1.333-1.377-1.333-.76 0-1.377.597-1.377 1.333 0 .737.617 1.334 1.377 1.334Z" fill="url('#paint0_linear_87_8204')"/><path fill-rule="evenodd" clip-rule="evenodd" d="M18.983 30c2.197 0 3.979-1.724 3.979-3.852v-2.666h-6.886v-.741h9.946c2.197 0 3.978-1.725 3.978-3.852V13.11c0-2.127-1.781-3.852-3.978-3.852h-2.295v3.26c0 2.127-1.782 3.851-3.979 3.851h-7.344c-1.859 0-3.366 1.46-3.366 3.26v6.518c0 2.128 1.781 3.852 3.978 3.852h5.967Zm.918-4.74c-.76 0-1.377.596-1.377 1.333 0 .736.617 1.333 1.377 1.333.761 0 1.378-.597 1.378-1.333 0-.737-.617-1.334-1.378-1.334Z" fill="url('#paint1_linear_87_8204')"/><defs><linearGradient id="paint0_linear_87_8204" x1="12.481" y1="2" x2="12.481" y2="22.741" gradientUnits="userSpaceOnUse"><stop stop-color="#327EBD"/><stop offset="1" stop-color="#1565A7"/></linearGradient><linearGradient id="paint1_linear_87_8204" x1="19.519" y1="9.259" x2="19.519" y2="30" gradientUnits="userSpaceOnUse"><stop stop-color="#FFDA4B"/><stop offset="1" stop-color="#F9C600"/></linearGradient></defs></symbol><symbol fill="none" xmlns="http://www.w3.org/2000/svg" viewBox="0 0 32 32" id="css-3-svgrepo-com"><path d="M6 28 4 3h24l-2 25-10 3-10-3Z" fill="#1172B8"/><path d="M26 5H16v24.5l8-2.5 2-22Z" fill="#3AD"/><path d="M19.5 17.5h-10L9 14l8-2.5H9l-.5-3H24l-.5 3.5-6.5 2.5h6L22 24l-6 2-6-2-.5-5h3l.5 2.5 3 1 3-1 .5-4Z" fill="#fff"/></symbol><symbol fill="none" xmlns="http://www.w3.org/2000/svg" viewBox="0 0 32 32" id="html-5-svgrepo-com"><path d="M6 28 4 3h24l-2 25-10 3-10-3Z" fill="#E44D26"/><path d="M26 5H16v24.5l8-2.5 2-22Z" fill="#F16529"/><path d="M9.5 17.5 8.5 8H24l-.5 3h-12l.5 3.5h11L22 24l-6 2-6-2-.5-5h3l.5 2.5 3 1 3-1 .5-4h-10Z" fill="#fff"/></symbol><symbol xmlns="http://www.w3.org/2000/svg" xmlns:xlink="http://www.w3.org/1999/xlink" preserveAspectRatio="xMidYMid" viewBox="0 0 256 256" id="javascript-svgrepo-com"><path d="M0 0h256v256H0V0Z" fill="#F7DF1E"/><path d="m67.312 213.932 19.59-11.856c3.78 6.701 7.218 12.371 15.465 12.371 7.905 0 12.89-3.092 12.89-15.12v-81.798h24.057v82.138c0 24.917-14.606 36.259-35.916 36.259-19.245 0-30.416-9.967-36.087-21.996M152.381 211.354l19.588-11.341c5.157 8.421 11.859 14.607 23.715 14.607 9.969 0 16.325-4.984 16.325-11.858 0-8.248-6.53-11.17-17.528-15.98l-6.013-2.58c-17.357-7.387-28.87-16.667-28.87-36.257 0-18.044 13.747-31.792 35.228-31.792 15.294 0 26.292 5.328 34.196 19.247L210.29 147.43c-4.125-7.389-8.591-10.31-15.465-10.31-7.046 0-11.514 4.468-11.514 10.31 0 7.217 4.468 10.14 14.778 14.608l6.014 2.577c20.45 8.765 31.963 17.7 31.963 37.804 0 21.654-17.012 33.51-39.867 33.51-22.339 0-36.774-10.654-43.819-24.574"/></symbol><symbol xmlns="http://www.w3.org/2000/svg" viewBox="-118.513 4.399 540.906 540.906" id="java-4-logo-svgrepo-com"><path d="M285.104 430.945h-2.037v-1.14h5.486v1.14h-2.025v5.688h-1.424v-5.688zm10.942.297h-.032l-2.02 5.393h-.924l-2.006-5.393h-.024v5.393h-1.343v-6.828h1.976l1.86 4.835 1.854-4.835h1.969v6.828h-1.311l.001-5.393z" fill="#e76f00"/><path d="M102.681 291.324s-14.178 8.245 10.09 11.035c29.4 3.354 44.426 2.873 76.825-3.259 0 0 8.518 5.341 20.414 9.967-72.63 31.128-164.376-1.803-107.329-17.743m-8.875-40.62s-15.902 11.771 8.384 14.283c31.406 3.24 56.208 3.505 99.125-4.759 0 0 5.937 6.018 15.271 9.309-87.815 25.678-185.624 2.025-122.78-18.833" fill="#5382a1"/><path d="M168.625 181.799c17.896 20.604-4.701 39.146-4.701 39.146s45.439-23.458 24.571-52.833c-19.491-27.395-34.438-41.005 46.479-87.934.001-.001-127.013 31.721-66.349 101.621" fill="#e76f00"/><path d="M264.684 321.369s10.492 8.646-11.555 15.333c-41.923 12.7-174.488 16.535-211.314.507-13.238-5.76 11.587-13.752 19.396-15.429 8.144-1.766 12.798-1.437 12.798-1.437-14.722-10.371-95.157 20.363-40.857 29.166 148.084 24.015 269.944-10.814 231.532-28.14M109.499 208.617s-67.431 16.016-23.879 21.832c18.389 2.462 55.047 1.905 89.192-.956 27.906-2.354 55.928-7.358 55.928-7.358s-9.84 4.214-16.959 9.074c-68.475 18.01-200.756 9.631-162.674-8.79 32.206-15.568 58.392-13.802 58.392-13.802m120.963 67.614c69.608-36.171 37.425-70.932 14.96-66.248-5.506 1.146-7.961 2.139-7.961 2.139s2.045-3.202 5.947-4.588c44.441-15.624 78.619 46.081-14.346 70.521 0 0 1.079-.962 1.4-1.824" fill="#5382a1"/><path d="M188.495 4.399s38.55 38.562-36.563 97.862c-60.233 47.567-13.735 74.689-.025 105.678-35.158-31.723-60.96-59.647-43.65-85.637 25.406-38.151 95.792-56.648 80.238-117.903" fill="#e76f00"/><path d="M116.339 374.246c66.815 4.277 169.417-2.373 171.846-33.987 0 0-4.67 11.984-55.219 21.503-57.027 10.731-127.364 9.479-169.081 2.601.002-.002 8.541 7.067 52.454 9.883" fill="#5382a1"/><path d="M105.389 495.049c-6.303 5.467-12.96 8.536-18.934 8.536-8.527 0-13.134-5.113-13.134-13.314 0-8.871 4.937-15.357 24.739-15.357h7.328l.001 20.135m17.392 19.623V453.93c0-15.518-8.85-25.756-30.188-25.756-12.457 0-23.369 3.076-32.238 6.999l2.56 10.752c6.983-2.563 16.022-4.949 24.894-4.949 12.292 0 17.58 4.949 17.58 15.181v7.678h-6.135c-29.865 0-43.337 11.593-43.337 28.993 0 15.018 8.878 23.554 25.594 23.554 10.745 0 18.766-4.437 26.264-10.929l1.361 9.221 13.645-.002zm58.043 0h-21.691l-26.106-84.96h18.944l16.198 52.199 3.601 15.699c8.195-22.698 13.992-45.726 16.891-67.898h18.427c-4.938 27.976-13.822 58.684-26.264 84.96m83.214-19.623c-6.315 5.467-12.983 8.536-18.958 8.536-8.512 0-13.131-5.113-13.131-13.314 0-8.871 4.947-15.357 24.748-15.357h7.341v20.135m17.39 19.623V453.93c0-15.518-8.871-25.756-30.186-25.756-12.465 0-23.381 3.076-32.246 6.999l2.557 10.752c6.985-2.563 16.041-4.949 24.906-4.949 12.283 0 17.579 4.949 17.579 15.181v7.678h-6.146c-29.873 0-43.34 11.593-43.34 28.993 0 15.018 8.871 23.554 25.584 23.554 10.752 0 18.77-4.437 26.28-10.929l1.366 9.221 13.646-.002zM36.847 529.099c-4.958 7.239-12.966 12.966-21.733 16.206L6.527 535.2c6.673-3.424 12.396-8.954 15.055-14.104 2.3-4.581 3.252-10.485 3.252-24.604v-96.995h18.478v95.666c-.001 18.875-1.51 26.5-6.465 33.936" fill="#e76f00"/></symbol></svg>